<svg xmlns="http://www.w3.org/2000/svg" width="546" height="271" viewBox="0 0 546 271">
  <g fill="#EEE">
    <g transform="translate(96 155)">
      <path d="M171.061,31.246 C170.326,32.12 170.637,33.668 169.214,34.097 C168.212,33.2 169.809,31.736 171.061,31.246 M168.823,34.179 C168.794,35.509 168.179,36.461 166.977,37.031 C166.649,35.472 167.488,34.668 168.823,34.179 M166.195,37.201 C166.751,37.208 166.729,38.111 166.922,38.681 C165.797,39.189 165.569,40.28 164.517,40.833 C164.618,39.326 166.094,38.706 166.195,37.201 M157.218,52.633 C157,54.29 154.787,54.655 155.233,56.742 C153.134,55.944 155.907,53.374 157.218,52.633 M206.901,45.675 C207.922,45.625 208.988,46.629 208.495,47.381 C207.664,47.276 207.229,46.559 206.901,45.675 M145.009,66.258 C143.878,68.59 140.592,68.59 138.604,69.06 C138.552,68.343 139.094,68.218 139.003,67.46 C141.7,68.461 142.314,66.652 145.009,66.258 M98.58,84.805 C97.879,85.435 97.75,86.643 96.579,86.806 C96.335,85.229 97.474,85.034 98.58,84.805 M45.72,67.791 C47.178,68.127 46.219,69.758 46.12,70.593 C44.75,70.381 45.507,68.663 45.72,67.791 M46.521,77.398 L47.722,77.398 C48.286,78.165 47.611,80.251 46.12,80.2 C46.671,79.685 46.517,78.462 46.521,77.398 M40.916,19.754 C40.452,19.163 40.452,18.745 40.916,18.151 C42.126,18.759 40.583,19.909 40.916,20.954 C39.799,21.305 38.94,21.913 37.713,22.157 C37.219,20.86 39.008,21.849 38.514,20.554 C37.458,20.432 37.481,21.389 37.314,22.157 C35.305,21.834 39.131,19.884 36.912,19.352 C37.475,18.433 38.572,20.33 39.314,20.554 C39.907,20.347 40.324,19.961 40.916,19.754 M46.921,14.951 C47.491,13.898 48.442,15.795 48.521,16.55 C46.513,16.563 48.357,18.966 47.722,19.754 C47.631,20.329 46.527,19.892 46.521,20.554 C44.284,18.836 47.816,15.755 46.921,14.951 M295.13,24.667 C294.466,25.954 293.847,26.232 293.943,27.642 C292.314,27.623 294.53,25.951 292.901,25.931 C293.472,25.111 293.984,24.148 295.13,24.667 M303.4,41.754 C303.907,42.074 303.594,44.8 302.81,45.398 C301.245,44.941 303.325,42.918 303.4,41.754 M299.756,41.164 C301.126,41.051 299.933,44.048 299.018,43.024 C299.261,42.404 299.511,41.785 299.756,41.164"/>
      <path d="M194.75,17.797 C197.359,18.083 198.643,16.401 199.01,13.044 C199.733,13.547 201.926,13.255 201.668,11.997 C203.227,12.406 200.768,13.472 201.241,14.486 C203.334,15.467 203.18,17.519 205.174,19.402 C205.508,19.045 205.769,16.404 206.451,18.648 C207.963,14.81 204.637,12.297 202.914,8.847 C210.899,15.169 216.041,26.295 223.596,33.697 C227.657,36.177 230.435,40.64 233.952,43.959 C234.611,43.856 235.268,43.755 235.23,43.203 C235.662,42.888 235.86,45.673 235.363,46.055 C231.732,44.232 228.1,38.503 223.989,35.535 C222.439,40.443 229.407,42.986 231.43,47.859 C232.501,47.764 233.129,47.379 233.065,46.548 C233.299,48.606 233.569,53.135 238.015,51.729 C238.666,53.203 237.395,53.433 237.132,54.318 C238.186,55.245 239.025,54.64 240.015,56.582 C238.627,57.3 239.063,55.202 237.885,55.595 C237.318,55.885 237.336,56.559 236.703,56.808 C237.07,57.966 237.36,56.008 238.538,56.416 C238.15,57.61 237.674,58.756 236.836,59.661 C237.182,60.298 237.385,59.351 238.211,59.365 C238.122,61.492 238.536,60.872 239.36,62.479 C238.003,62.134 237.279,60.809 236.016,60.314 C234.661,60.75 235.574,62.429 236.508,62.608 C236.797,63.587 234.924,63.169 234.311,63.56 C225.801,75.425 217.896,88.966 208.28,98.896 C209.932,100.16 205.33,102.301 206.51,104.076 C205.114,103.883 203.364,104.574 202.215,106.434 C201.789,105.369 202.838,105.256 202.182,104.041 C201.504,104.392 202.101,105.568 200.543,105.351 C200.305,106.811 203.109,106.587 201.951,107.449 C202.629,108.939 200.424,108.57 200.508,109.678 C199.002,109.417 200.459,107.855 200.479,107.285 C196.678,107.88 200.883,111.22 197.691,112.205 C197.783,111.472 198.121,110.899 198.215,110.17 C196.301,110.252 195.688,111.17 194.185,111.514 C194.11,108.435 196.977,107.261 197.494,104.564 C196.406,102.718 196.573,105.268 194.742,105.154 C195.615,101.181 191.934,100.141 190.123,97.023 C189.844,97.899 189.104,98.475 187.563,98.532 C186.351,97.494 185.383,95.131 183.761,96.467 C182.811,91.215 178.197,91.623 176.91,86.896 C171.396,82.212 168.354,73.712 162.03,68.966 C161.213,69.619 161.741,71.146 160.128,71.293 C161.225,70.179 160.748,66.956 158.064,68.371 C157.938,66.18 159.689,65.21 159.834,63.193 C157.111,64.397 156.986,69.163 153.835,68.799 C155.742,68.832 154.422,66.193 157.014,65.717 C155.296,63.614 159.608,63.24 158.229,60.176 C156.132,60.534 157.522,63.146 155.605,63.62 C155.081,61.228 158.977,58.475 159.082,55.193 C157.943,53.823 158.166,53.887 157.377,51.72 C159.028,51.203 159.881,51.921 160.524,52.963 C170.444,37.379 182.957,23.47 194.815,9.144 C195.84,9.593 197.439,9.162 197.603,10.946 C199.717,8.754 199.571,5.104 202.75,3.603 C202.112,7.012 198.748,8.657 198.914,12.585 C195.547,13.039 197.078,16.67 194.75,17.797 M192.322,22.155 C194.268,22.923 195.352,20.326 195.961,18.976 C194,18.195 193.231,20.999 192.322,22.155 M201.012,17.895 C201.2,18.808 199.885,18.748 200.484,19.926 C201.508,19.574 202.236,19.669 202.517,20.453 C205.297,25.117 208.941,28.444 212.973,31.172 C210.478,26.469 206.125,20.475 201.012,17.895 M198.354,25.665 C198.373,27.67 200.623,26.23 201.504,26.907 C201.002,25.847 200.602,24.634 199.174,25.008 C199.149,25.388 198.905,25.626 198.354,25.665 M218.739,55.856 C212.83,46.823 204.246,39.506 199.074,31.268 C198.188,29.904 200.484,30.601 199.6,29.236 C198.983,29.173 198.534,28.845 198.389,28.055 C195.629,28.247 195.471,30.876 195.305,31.598 C199.006,36.958 204.883,42.475 208.875,47.889 C209.853,49.214 211.771,52.009 211.07,53.662 C204.904,44.755 200.825,40.693 194.028,32.351 C189.408,39.245 184.194,45.752 179.109,52.343 C183.86,63.329 192.541,68.238 198.776,76.932 C198.25,77.121 197.455,77.13 197.498,77.685 C202.939,76.826 206.116,68.813 209.463,64.084 C212.475,62.96 212.027,58.079 215.463,58.477 C215.566,57.228 213.217,56.753 214.416,55.823 C215.112,55.761 215.071,56.839 215.267,57.563 C217.436,56.774 217.371,56.998 218.739,55.856 M216.187,30.483 C214.977,28.691 213.926,26.65 212.254,25.568 C213.267,27.665 214.523,29.388 216.187,30.483 M214.58,34.188 C214.221,32.703 213.461,31.84 212.156,31.83 C212.569,33.225 213.813,33.336 214.58,34.188 M165.212,52.443 C168.191,50.71 169.981,45.061 172.522,41.757 C169.484,44.667 165.708,49.202 165.212,52.443 M221.762,34.09 C221.113,33.048 220.778,31.532 219.334,31.73 C220.277,32.308 220.367,34.204 221.762,34.09 M163.506,55.686 C163.587,54.553 165.84,54.827 164.852,52.999 C163.644,53.171 161.874,54.984 163.506,55.686 M176.391,55.326 C178.65,55.175 175.583,57.446 174.489,57.652 C175.195,59.209 176.391,60.009 177.209,61.392 C177.052,60.632 178.426,60.861 178.388,60.179 C177.785,60.298 177.531,59.032 178.095,58.803 C180.068,58.587 181.375,63.651 183.667,62.412 C182.224,60.049 179.139,57.328 179.145,54.738 C178.106,54.682 176.305,53.694 176.391,55.326 M167.013,63.096 C166.712,61.93 166.285,60.963 165.505,60.539 C165.004,61.302 165.66,63.398 167.013,63.096 M169.769,62.505 C170.925,62.199 171.403,61.458 171.209,60.278 C170.582,60.431 170.155,60.278 169.733,60.114 C170.392,61.328 169.343,61.439 169.769,62.505 M176.322,63.98 C174.624,63.757 174.483,61.122 172.784,60.897 C172.374,61.836 175.26,65.396 176.322,63.98 M163.67,67.65 C164.269,67.12 164.019,66.031 164.096,65.162 C162.128,64.627 161.8,68.199 163.67,67.65 M165.668,65.787 C164.692,64.604 165.892,63.547 163.802,63.784 C164.104,64.944 164.394,66.129 165.668,65.787 M231.624,55.497 C232.841,54.838 232.951,55.889 234.017,55.465 C233.848,54.299 233.004,54.179 232.247,53.925 C232.279,54.601 231.657,54.86 231.624,55.497 M167.471,69.718 C165.267,71.277 167.031,69.093 165.8,68.636 C165.757,69.399 164.439,69.337 165.275,70.67 C166.046,70.37 168.052,71.606 167.471,69.718 M185.665,67.261 C184.508,66.811 184.23,65 182.78,65 C183.432,65.861 184.914,68.578 185.665,67.261 M174.684,78.731 C172.159,77.333 171.422,73.183 168.881,71.815 C169.622,74.72 172.45,78.483 174.684,78.731 M188.941,71.359 C188.305,70.102 187.65,68.872 186.419,68.54 C186.533,70.603 187.788,70.897 188.941,71.359 M196.254,80.835 C197.405,80.657 198.498,80.441 198.352,79.422 C196.584,78.687 195.709,76.582 193.795,76.077 C194.256,78.416 196.68,78.889 196.254,80.835 M183.042,90.861 C182.566,89.15 181.9,87.737 180.058,88.139 C180.847,89.364 181.29,91.126 183.042,90.861 M189.006,96.302 C188.246,94.088 183.591,91.821 183.795,92.14 C185.446,95.043 187.754,95.451 189.006,96.302 Z M318.251,57.242 C319.009,57.608 319.381,57.073 320.167,57.5 C317.495,62.169 318.868,67.794 317.658,75.193 C322.555,69.618 320.9,61.385 323.648,53.837 C325.393,56.233 322.333,62.485 322.618,66.563 C324.968,62.846 326.586,60.539 327.835,56.01 C328.816,56.31 329.08,56.919 328.619,57.837 C329.74,55.509 334.608,51.347 331.488,49.383 C331.985,48.324 333.015,49.841 333.232,50.078 C338.06,40.985 344.738,25.243 353.853,19.902 C353.225,23.224 350.027,24.024 348.37,27.315 C348.681,29.237 350.762,26.035 351.162,27.922 C346.59,30.211 347.605,34.236 344.109,36.732 C348.249,35.278 342.144,40.584 344.292,41.351 C344.521,40.37 345.929,39.962 345.94,38.474 C346.36,39.134 346.352,39.984 346.557,40.736 C348.963,40.825 347.473,36.905 349.603,36.901 C349.606,38.747 350.397,41 348.388,42.48 C349.671,43.226 350.483,42.876 350.827,41.43 C352.501,42.833 350.012,43.791 349.173,44.309 C349.04,44.844 349.823,44.993 350.309,45.267 C347.83,47.602 346.859,49.775 345.002,52.24 C347.127,51.981 347.486,49.53 349.439,47.444 C350.646,48.293 351.022,47.204 352.229,48.049 C351.066,50.122 350.83,50.524 349.532,51.019 C349.639,51.575 350.354,51.869 349.883,52.674 C351.158,53.122 351.38,51.118 352.757,51.799 C352.598,52.23 353.152,52.351 353.454,52.584 C342.103,63.795 335.439,85.272 326.747,98.018 C326.586,100.161 325.505,100.779 323.876,101.419 C323.795,102.42 326.025,102.421 324.923,103.86 C322.813,102.46 324.247,105.378 323.007,103.601 C322.55,107.599 319.226,107.437 319.095,109.618 C318.001,108.768 317.716,109.784 316.738,109.186 C317.767,106.942 316.863,106.565 318.305,105.26 C316.464,104.349 316.323,104.396 315.42,103.611 C314.439,103.28 314.499,105.384 313.943,106.052 C311.85,104.923 310.16,104.592 308.279,106.321 C307.994,102.829 306.027,100.063 306.179,96.383 C305.09,95.535 304.802,96.55 303.824,95.95 C302.809,91.934 301.135,88.198 301.722,83.491 C301.198,83.675 300.547,83.569 299.801,83.233 C299.34,76.601 299.146,69.046 298.558,63.536 C295.398,66.78 289.781,72.133 292.039,76.093 C291.052,75.915 291.002,75.335 290.466,74.962 C290.125,75.83 291.436,75.993 290.645,77.051 C291.511,77.395 291.671,76.087 292.732,76.879 C290.423,78.564 293.508,79.521 292.303,81.757 C290.899,79.707 291.022,79.017 289.771,76.708 C289.089,76.346 287.756,79.207 289.339,79.06 C288.858,79.907 287.828,79.465 287.072,79.674 C286.729,82.107 284.27,85.454 286.818,86.643 C285.964,86.897 285.582,88.252 284.38,87.694 C285.678,90.014 281.11,92.271 283.083,94.754 C282.113,93.696 280.589,93.09 278.199,94.326 C271.799,72.513 260.227,52.923 248.413,33.438 C247.576,35.01 250.779,37.954 250.078,40.668 C248.915,38.563 248.439,36.997 247.631,34.133 C245.658,33.863 244.865,31.12 244.663,31.436 C243.813,30.211 246.58,30.361 247.013,29.342 C247.605,28.366 244.933,28.791 246.229,27.511 C245.688,27.379 245.544,28.162 245.271,28.648 C244.051,27.846 245.354,25.962 244.135,25.161 C243.014,25.783 244.975,28.156 244.313,29.782 C241.501,24.506 241.801,16.718 236.015,13.84 C236.173,13.087 236.728,13.254 236.973,12.706 C236.251,10.782 233.47,11.985 234.182,9.573 C235.148,10.117 235.543,10.914 237.058,11.221 C237.221,6.562 233.898,3.185 231.993,1.12 C232.426,-1.214 234.171,3.92 236.878,4.08 C236.719,4.831 236.164,4.666 235.919,5.212 C236.076,5.747 236.45,6.189 236.88,6.605 C237.528,5.222 240.193,5.851 238.188,7.126 C239.194,7.233 240.006,6.881 240.628,6.078 C243.608,8.898 243.619,9.309 248.387,10.69 C249.388,13.193 252.019,15.951 253.973,16.959 C254.484,15.654 253.432,15.024 253.71,13.82 C252.947,13.453 252.576,13.99 251.791,13.559 C251.964,13.126 252.137,12.69 252.313,12.254 C251.791,12.438 251.14,12.33 250.394,11.992 C253.273,10.642 249.54,10.123 247.776,8.422 C249.648,8.522 248.315,6.375 249.866,5.723 C252.753,7.522 254.904,11.628 258.064,13.031 C257.431,14.729 263.042,19.21 264.523,22.173 C270.118,33.376 278.001,44.735 283.212,56.408 C288.619,49.711 294.022,42.985 301.059,38.261 C302.27,40.435 299.457,40.224 300.367,42.533 C306.108,43.813 304.636,37.774 307.853,33.895 C308.913,35.269 306.081,39.446 307.251,41.738 C308.381,41.291 308.72,38.992 310.475,39.994 C311.533,37.369 311.521,35.207 312.993,32.407 C313.442,35.481 313.761,37.83 312.219,40.688 C312.661,41.626 313.605,43.297 314.923,42.774 C314.806,41.966 314.222,42.635 313.351,41.644 C313.923,40.748 315.802,42.228 315.967,42.687 C316.709,41.613 316.795,39.007 317.97,38.939 C318.994,41.749 316,46.286 316.934,49.135 C318.21,49.586 318.433,47.582 319.808,48.264 C319.096,48.287 319.075,49.915 318.241,49.657 C317.792,50.575 319.709,50.472 320.248,50.962 C319.078,53.581 318.85,53.446 318.251,57.242 Z M344.134,59.478 C345.436,58.105 349.844,55.663 348.485,53.632 C346.523,55.881 345.329,56.962 344.134,59.478 M266.631,37.164 C265.871,36.288 265.766,35.129 264.713,34.376 C264.232,35.569 265.731,37.758 266.631,37.164 M294.62,49.337 C295.043,48.068 296.437,49.074 296.536,47.067 C295.479,46.373 294.045,49.005 294.62,49.337 M314.09,80.342 C314.531,78.587 314.348,77.101 313.912,75.724 C313.241,77.575 313.517,79.024 314.09,80.342 M314.465,102.218 C315.379,100.377 314.746,99.204 314.111,98.035 C313.323,99.815 313.951,100.992 314.465,102.218 M311.587,103.09 C313.128,103.272 312.661,104.316 313.422,104.832 C313.286,103.31 313.442,99.78 311.758,100.129 C312.83,101.092 312.681,102.026 311.587,103.09 M287.576,60.675 C291.303,55.181 286.599,57.653 287.576,60.675 M299.015,40.87 C298.808,36.349 300.492,37.418 299.015,40.87 Z M317.691,23.164 C319.603,23.785 316.958,25.085 316.648,25.78 C315.537,24.713 317.717,24.469 317.691,23.164 Z"/>
      <path d="M132.394,84.789 C136.313,86.535 144.456,83.334 148.351,83.381 C147.311,87.601 139.486,84.73 136.617,88.075 C139.242,89.312 142.751,86.784 146.942,86.665 C144.566,89.455 138.946,88.995 135.208,90.421 C135.515,90.899 136.287,90.91 136.147,91.832 C138.971,92.149 139.227,89.901 142.249,90.421 C141.778,93.862 136.361,92.356 134.739,94.646 C135.167,95.929 136.383,93.814 137.086,95.118 C136.103,96.382 135.108,97.614 134.271,96.524 C130.619,100.436 118.82,101.672 111.742,104.972 C111.569,104.172 112.107,104.086 112.68,104.034 C111.879,102.662 110.973,105.094 109.395,104.502 C109.471,105.05 110.25,104.897 110.804,104.972 C110.357,105.349 107.36,107.473 107.518,104.972 C106.221,104.771 107.079,106.721 106.108,106.849 C104.884,106.976 103.762,107.006 104.232,105.439 C102.991,105.992 102.775,105.847 103.293,107.32 C101.117,107.086 99.859,107.148 98.6,108.722 C95.159,105.982 91.836,108.894 88.275,109.194 C88.671,107.712 90.694,107.861 91.09,106.376 C89.181,106.079 90.672,104.567 89.213,104.502 C89.325,103.087 90.52,104.262 91.09,102.622 C90.798,101.352 89.13,101.456 89.213,99.806 C90.408,100.052 91.033,100.607 91.09,98.872 C90.107,98.419 88.746,98.661 87.336,99.339 C88.07,96.962 86.645,98.049 87.336,96.053 C89.732,96.418 91.216,95.865 90.622,93.237 C89.518,91.862 87.795,91.832 86.868,91.357 C87.442,90.531 88.321,89.999 88.745,89.013 C87.299,87.46 89.015,85.638 87.336,84.321 C88.65,81.291 87.345,74.734 86.868,70.242 C86.73,68.96 88.105,67.034 85.928,66.956 C86.078,72.857 85.247,83.137 87.336,89.953 C86.214,90.837 84.803,93.284 84.52,91.357 C82.875,91.49 85.369,93.436 84.051,93.237 C81.729,92.833 84.749,90.799 84.989,89.953 C83.729,74.088 83.012,63.092 81.235,46.771 C80.812,45.192 80.186,46.718 79.357,45.836 C79.515,44.741 79.839,43.812 80.767,43.488 C77.701,39.407 81.132,36.003 79.357,32.693 C80.359,32.471 80.252,33.363 80.295,34.101 C82.726,32.906 81.696,29.173 82.172,27.06 C87.006,27.946 81.793,19.88 85.928,19.55 C86.417,23.802 87.502,30.704 89.684,35.976 C92.229,34.339 90.146,29.922 89.684,26.592 C90.723,26.333 90.352,27.49 91.09,27.531 C91.833,25.842 91.338,23.962 91.561,20.958 C92.43,21.031 91.849,22.55 92.498,22.835 C92.651,21.708 92.181,17.241 93.438,15.798 C93.241,13.997 90.708,16.402 90.622,13.92 C92.625,13.754 92.327,14.4 94.846,13.452 C99.916,37.307 101.128,62.048 102.825,84.789 C108.167,85.184 110.529,81.687 113.62,83.381 C128.674,81.632 147.193,76.617 160.554,74.462 C153.244,79.148 143.099,78.162 135.208,81.971 C135.553,82.41 136.062,82.686 136.617,82.911 C137.957,82.05 140.943,80.374 142.718,81.503 C140.226,83.067 136.477,83.706 132.394,84.789 M92.028,47.243 C91.743,46.121 92.62,43.837 91.561,43.488 C90.655,44.45 91.244,46.562 92.028,47.243 M86.868,65.545 C87.19,64.467 87.171,62.518 86.397,61.324 C85.767,62.092 86.292,64.547 86.868,65.545 M96.723,92.297 C96.749,91.806 97.325,91.926 97.192,92.77 C98.816,92.83 99.917,92.362 99.539,90.421 C98.409,90.616 98.518,89.564 97.192,89.953 C97.202,90.656 95.448,91.872 96.723,92.297 M92.028,94.646 C93.506,94.88 93.866,93.623 94.846,94.646 L94.846,91.832 C93.859,91.293 93.016,92.116 92.028,90.891 C91.312,92.382 91.866,92.956 92.028,94.646 M92.028,101.218 C92.804,101.223 92.292,102.518 92.967,102.622 C92.845,100.793 94.428,101.127 94.846,102.154 C94.703,101.074 96.201,101.632 96.253,100.748 C94.819,101.085 94.875,99.935 93.438,100.277 C93.851,102.463 91.891,99.962 92.028,101.218 M91.561,106.849 C93.221,107.098 93.979,106.453 94.377,105.439 C93.289,105.59 92.575,105.367 92.028,104.972 C91.882,105.605 91.361,105.866 91.561,106.849 M14.096,26.826 C14.877,25.573 15.357,26.319 16.913,25.418 C17.121,25.835 17.325,26.256 17.851,26.357 C18.223,27.98 17.33,28.338 16.913,29.172 C18.313,29.844 18.508,28.791 19.728,29.641 C17.78,28.458 21.046,27.703 18.321,27.295 C19.437,26.441 19.979,25.016 19.259,23.54 C20.681,22.894 20.935,23.764 23.014,23.54 C22.281,24.326 20.061,24.886 20.668,28.234 C22.364,28.366 21.741,26.179 22.545,25.418 C23.799,26.712 23.565,24.864 24.891,24.947 C25.025,26.378 23.389,26.772 24.423,27.765 C33.13,23.468 44.105,18.942 56.338,17.909 C50.375,20.37 43.048,21.571 37.094,23.54 C50.458,22.567 63.789,17.581 74.172,15.094 C74.159,15.547 73.598,15.458 73.233,15.561 C72.653,17.081 74.752,15.92 74.172,17.441 C68.648,19.083 63.774,20.227 58.214,22.602 C62.803,22.259 67.481,21.854 72.294,21.193 C71.188,23.189 68.581,22.966 67.132,23.54 C68.15,24.979 69.773,23.089 71.355,23.54 C70.142,27.052 67.193,24.591 65.723,27.295 C68.413,27.323 69.7,25.953 72.764,26.357 C69.224,28.52 65.624,29.032 60.093,30.582 C66.496,33.177 71.093,26.394 77.458,27.765 C61.092,35.591 44.783,39.693 27.237,45.129 C27.081,47.005 27.842,49.801 25.829,49.822 C26.351,47.112 26.357,46.67 26.299,45.129 C21.759,44.274 23.428,53.849 21.607,55.925 C22.62,56.984 23.207,55.535 24.891,55.925 C24.575,53.577 25.326,52.292 25.361,50.292 C27.732,50.058 26.204,53.397 25.829,54.516 C30.539,55.426 39.681,51.25 45.072,51.231 C43.931,54.386 37.055,53.581 33.34,55.456 C35.22,58.601 40.696,56.318 43.196,56.862 C43.101,59.562 40.932,57.94 39.911,60.151 C48.205,59.308 57.093,55.211 67.132,52.17 C66.514,55.464 61.522,54.381 60.093,56.862 C52.937,57.842 47.909,60.951 40.849,62.024 C41.155,62.503 41.928,62.512 41.787,63.434 C39.961,64.892 36.3,64.52 35.217,66.72 C35.306,67.099 35.687,67.189 35.686,67.657 C38.807,66.939 43.677,64.972 47.42,64.374 C48.682,64.17 51.69,62.938 52.113,65.312 C46.045,67.019 37.591,69.864 30.992,71.881 C31.638,74.069 34.381,69.901 34.748,73.292 C37.012,72.922 41.085,72.297 42.257,72.351 C42.177,75.562 38.216,74.219 35.686,74.7 C33.604,75.093 31.788,76.589 30.054,77.044 C29.491,77.194 29.781,76.112 29.585,76.105 C27.859,76.058 25.172,78.564 23.953,78.454 C22.456,78.31 21.754,75.996 22.545,74.229 C19.064,76.087 20.744,80.859 20.668,84.555 C20.559,89.842 19.421,96.262 20.668,100.981 C21.771,100.836 20.947,98.755 22.545,99.104 C22.689,101.391 22.055,103.763 18.79,103.795 C18.879,103.417 19.261,103.33 19.259,102.857 C17.783,102.622 17.425,103.88 16.444,102.857 C19.145,104.249 15.791,106.342 18.321,107.082 C17.558,110.443 15.111,106.805 13.627,106.614 C13.972,105.776 14.481,106.545 15.036,106.614 C14.235,104.727 14.418,104.753 14.096,102.39 C11.736,103.334 13.546,106.245 12.689,108.491 C13.562,108.425 14.257,108.18 14.566,107.553 C15.328,108.355 15.987,109.262 15.975,110.837 C14.499,110.906 14.361,109.632 14.096,108.491 C12.035,109.887 13.248,113.385 13.627,116 C10.171,116.011 13.944,109.642 10.342,108.96 C11.468,106.987 9.406,106.989 10.342,105.205 C10.336,103.886 9.062,106.324 9.403,104.266 C8.902,105.405 10.022,109.02 9.403,109.429 C8.371,109.675 5.869,103.381 7.056,102.857 C6.412,100.57 5.123,103.623 4.241,102.39 C4.429,100.477 2.649,100.539 1.893,99.575 C0.836,90.778 2.491,84.585 0.956,79.391 C2.728,74.708 3.572,64.221 4.241,57.332 C7.73,49.039 7.998,34.44 13.159,26.357 C13.308,27.446 13.082,28.159 12.689,28.703 C14.354,28.182 15.627,27.361 14.096,26.826 M14.096,29.641 C15.352,29.914 16.487,27.71 15.504,27.295 C15.36,28.4 13.875,28.168 14.096,29.641 M34.277,61.554 C37.346,61.498 38.191,61.314 39.441,60.151 C37.221,60.118 34.821,59.909 34.277,61.554 M28.647,73.292 C29.875,73.423 30.664,73.118 30.524,71.881 C29.719,71.033 28.678,72.024 28.647,73.292 M23.953,74.229 C25.699,74.173 27.739,73.711 27.237,72.351 C27.141,73.977 23.754,72.311 23.953,74.229 M5.648,101.451 C6.257,100.35 5.41,100.402 6.587,99.575 C5.683,99.382 6.216,97.755 4.71,98.165 C4.893,99.393 4.951,100.741 5.648,101.451"/>
    </g>
    <path d="M511.357,87.558 C511.978,87.663 511.66,88.11 511.357,88.107 C521.422,88.952 530.046,88.467 542.114,88.656 C539.01,91.589 532.873,90.86 528.381,90.852 C511.543,90.826 492.866,89.126 476.755,91.951 C477.044,92.393 477.328,92.84 477.302,93.6 C499.024,94.126 521.755,93.281 544.858,92.502 C544.837,93.441 545.265,93.924 545.958,94.148 C545.48,99.712 537.899,98.172 533.322,99.64 C537.212,100.993 541.646,99.981 543.757,100.74 C543.099,102.271 540.252,101.625 540.467,104.035 C536.981,102.594 533.265,104.829 528.381,105.132 C530.021,107.273 540.278,105.583 545.408,106.231 C540.561,109.882 533.532,107.509 527.836,108.98 C528.81,110.816 530.232,109.023 532.777,109.527 C531.682,111.412 528.022,111.569 525.638,111.723 C514.705,112.423 494.996,111.412 481.697,113.923 C481.059,113.46 480.224,113.197 478.951,113.371 C479.174,115.058 479.204,120.678 478.951,123.809 C474.549,123.213 476.979,118.579 476.207,113.923 C476.126,113.015 473.915,114.495 472.36,113.923 C472.698,118.188 468.379,122.159 470.71,127.651 C466.752,127.392 468.926,120.596 467.967,117.214 C467.422,115.3 465.41,114.179 464.671,112.273 C461.827,104.927 464.056,95.673 462.476,89.204 C462.776,87.986 461.423,88.422 461.376,87.558 C460.888,72.703 457.04,54.769 459.178,38.126 C460.144,38.259 460.431,39.071 460.275,40.324 C461.492,40.253 460.513,37.992 460.824,37.029 C461.466,37.49 462.301,37.753 463.573,37.579 L463.573,34.281 C463.075,32.784 462.344,35.951 461.376,34.281 C461.698,33.138 462.531,32.505 463.023,31.537 C464,31.938 463.103,32.536 463.023,33.184 C464.971,33.877 466.071,29.265 466.317,33.184 C469.888,31.256 465.794,25.878 470.163,24.945 C470.873,29.947 469.011,35.767 470.71,39.226 C473.316,37.5 470.335,32.364 472.36,30.987 C474.122,31.887 473.761,32.823 473.459,34.83 C474.429,34.345 474.365,32.394 475.658,33.732 L475.658,35.38 C475.589,37.953 474.858,34.781 473.459,35.38 C475.528,35.876 474.423,39.541 476.207,40.324 C473.35,58.881 477.472,69.833 476.755,88.656 C489.004,89.046 501.31,89.053 511.357,87.558 M169.84,106.506 C171.43,109.395 170.898,110.997 172.038,114.196 C170.307,115.768 170.477,112.105 168.745,111.996 C169.712,115.058 172.204,116.592 172.588,120.235 C169.305,119.673 170.411,114.725 166.547,114.745 C165.913,109.794 165.548,107.059 161.055,105.407 C152.566,90.459 145.064,74.53 134.142,62.017 C131.525,74.804 135.68,91.007 133.043,105.407 C130.89,105.911 132.644,102.51 131.395,102.112 L128.65,102.112 C127.813,103.761 129.007,105.728 128.101,108.703 C123.275,106.385 127.664,99.166 124.805,97.169 C122.448,78.639 122.645,60.21 120.959,44.442 C123.604,39.929 121.043,34.468 120.959,30.162 C120.931,28.6 120.731,25.127 122.608,24.668 C122.06,27.062 122.193,28.433 123.156,30.162 C124.934,30.84 123.576,28.382 125.353,29.062 C125.397,31.584 127.49,32.053 128.101,34.005 C129.424,34.232 129.296,33.002 130.846,33.456 C143.221,45.982 152.256,61.846 163.251,75.749 C162.341,79.028 164.135,80.023 165.997,81.79 C166.339,65.479 166.937,53.079 167.644,36.204 C168.91,35.639 169.416,34.315 171.491,34.558 C172.381,32.663 169.939,29.222 172.588,28.515 C176.233,33.086 174.478,37.763 175.883,44.442 C176.197,40.455 176.481,35.409 176.983,30.711 C177.311,27.605 174.882,22.191 178.629,21.923 C179.536,31.401 180.374,43.778 180.276,54.878 C180.367,55.521 181.279,55.34 181.925,55.426 C179.757,58.24 181.044,62.839 179.729,65.862 C182.224,81.19 180.308,96.905 179.729,111.451 C177.056,112.292 178.08,109.435 176.983,108.703 C175.55,117.165 186.618,123.503 184.671,130.672 C181.695,126.143 178.823,121.506 176.433,116.393 C175.942,117.615 176.764,121.313 173.687,121.337 C173.128,115.61 173.951,109.63 169.84,106.506 M136.888,49.933 C134.574,49.137 134.562,46.034 131.946,45.541 C132.485,47.743 135.555,52.042 136.888,49.933 M165.997,85.634 C166.559,86.169 167.109,86.719 167.644,87.282 C167.759,91.812 169.368,81.417 167.644,82.34 C167.424,83.767 166.007,83.995 165.997,85.634 M168.195,96.622 C168.347,95.183 167.994,94.257 166.547,94.423 C166.392,95.859 166.747,96.786 168.195,96.622 M173.687,106.506 C172.766,104.242 174.767,98.378 173.138,95.521 C172.424,97.794 171.153,104.909 173.687,106.506 M170.391,101.013 C170.905,100.547 171.566,97.512 170.391,97.169 C169.876,97.634 169.217,100.671 170.391,101.013 M213.744,109.909 C215.471,111.06 215.653,105.977 217.59,105.514 C218.244,109.034 213.178,112.174 214.295,115.95 C215.848,116.047 215.573,113.884 217.041,115.399 C216.614,114.911 216.449,114.16 216.491,113.202 C217.37,113.973 217.894,115.095 218.137,116.501 C216.54,115.435 215.848,119.081 214.295,119.795 C210.157,119.903 211.588,114.445 207.154,114.85 C206.526,111.962 204.524,111.073 203.859,107.161 C201.426,108.12 204.437,110.715 203.859,113.202 C200.015,109.541 200.146,101.905 196.171,98.374 C198.515,98.66 196.51,95.661 196.718,96.727 C194.976,87.823 194.895,70.157 193.973,55.533 C194.959,55.604 195.132,54.861 196.171,54.983 C196.358,57.908 197.506,59.874 198.367,62.126 C198.408,55.82 200.315,47.362 198.916,43.45 C202.715,36.25 200.791,28.262 204.41,22.581 C207.064,26.026 202.782,38.163 204.41,43.999 C205.759,41.385 207.696,42.615 208.803,39.607 C211.45,41.957 207.924,48.614 209.901,51.139 C210.444,47.022 211.173,41.336 212.097,36.859 C212.421,35.29 211.849,32.453 214.295,32.467 C211.597,46.32 210.338,64.266 210.998,79.152 C212.018,74.876 213.43,66.901 212.097,63.22 C215.829,56.909 212.335,44.873 217.59,39.056 C216.157,59.3 211.21,82.883 213.744,105.514 C215.191,105.678 214.178,103.383 215.94,103.867 C215.937,106.608 214.336,107.751 213.744,109.909 M332.537,122.891 C333.521,123.7 334.186,124.828 334.152,126.656 C332.062,127.456 330.831,125.017 328.773,125.581 C329.009,124.917 329.461,124.476 330.387,124.505 C329.184,122.694 327.126,120.296 325.013,122.352 C324.983,126.327 331.546,126.968 328.773,130.416 C327.038,130.005 325.962,128.93 325.549,127.191 C324.253,126.971 324.377,128.175 322.863,127.731 C317.284,115.382 307.461,107.279 302.964,93.853 C304.232,101.368 309.147,109.896 313.721,115.902 C313.996,118.672 314.821,120.891 317.485,121.277 C314.352,123.135 321.064,124.859 318.556,127.731 C308.082,115.534 300.189,98.738 294.9,79.872 C292.557,89.54 291.885,100.876 288.985,109.986 C283.195,101.479 291.359,88.062 291.137,76.647 C288.452,85.612 286.633,95.445 284.143,104.608 C284.74,106.701 286.414,107.712 286.836,109.986 C286.207,110.437 285.396,110.695 284.143,110.524 C285.339,113.092 286.438,115.761 287.371,118.588 C285.783,119.319 284.041,119.263 283.071,118.052 C282.496,118.782 283.202,121.493 285.223,121.277 C285.619,122.931 283.745,122.31 284.143,123.967 C280.359,122.732 280.527,117.545 278.232,114.827 C277.271,115.304 276.861,116.327 275.004,115.902 C266.282,99.35 254.655,85.703 245.429,69.654 C243.566,82.468 244.451,94.376 243.277,106.757 C239.892,106.352 242.129,111.461 240.589,114.827 C238.478,115.327 239.234,112.956 236.826,113.749 C236.361,111.169 237.902,106.582 235.752,105.683 C232.994,105.606 234.66,108.35 234.675,109.986 C233.022,110.749 232.257,110.225 230.912,109.449 C229.919,112.483 230.267,116.935 229.836,119.127 L227.687,119.127 C226.272,97.983 230.501,78.714 228.224,61.054 C229.511,54.136 229.003,45.632 224.458,40.621 C228.178,41.098 226.312,37.499 226.072,35.78 C228.458,34.597 228.986,34.513 230.912,32.555 C231.651,33.249 231.444,34.889 231.45,36.319 C234.909,35.471 237.401,35.439 241.127,35.244 C242.074,33.432 240.765,32.486 241.127,29.866 L243.277,29.866 C242.275,43.846 252.711,53.219 259.409,63.742 C265.698,73.614 270.346,84.293 277.154,93.318 C279.589,76.784 279.494,57.234 281.456,41.696 C284.064,42.032 285.109,40.733 285.756,37.93 C288.25,37.59 287.122,40.872 287.371,42.771 C287.395,44.722 291.188,42.898 290.6,45.458 C292.105,43.207 292.089,39.425 295.439,39.006 C295.475,43.197 294.791,44.367 293.824,48.148 C298.314,43.44 296.296,34.959 300.814,30.941 C302.602,33.717 299.936,37.026 299.203,41.159 C299.281,42.153 301.023,41.487 301.354,42.233 C301.198,51.399 301.898,57.849 304.039,63.742 C304.541,63.351 304.854,62.764 305.116,62.129 C306.754,82.899 321.872,99.005 330.923,115.902 C324.396,110.602 320.798,102.367 316.407,94.93 C318.97,104.199 325.844,113.81 331.465,121.817 C331.867,121.254 332.268,120.686 332.669,120.112 L333.39,121.473 C333.168,122.011 332.959,122.554 332.537,122.891"/>
    <path d="M305.505 51.583C307.021 46.823 310.823 36.986 307.152 32.36 305.396 39.372 307.12 44.068 305.505 51.583M304.404 48.286C304.725 33.814 302.857 48.181 303.857 49.932 303.943 49.289 303.762 48.375 304.404 48.286M270.353 58.722C274.221 64.113 276.443 69.549 280.236 73.552 275.148 62.898 269.329 52.972 262.115 44.442 261.888 51.506 267.413 54.625 270.353 58.722M321.43 80.143C321.446 78.297 320.677 77.239 319.782 76.297 319.138 77.104 319.914 79.819 321.43 80.143M125.369 138.997C127.782 139.742 127.897 142.717 128.801 144.923 126.385 144.182 126.275 141.203 125.369 138.997M16.259 93.82C16.683 93.271 19.009 94.241 19.799 92.699 17.189 90.807 14.728 91.326 11.013 91.388 10.953 90.334 11.75 90.161 11.637 89.05 13.673 88.149 18.452 89.557 20.461 88.011 32.349 75.821 42.452 61.777 55.695 50.982 55.989 47.904 59.133 47.768 59.898 45.176 60.158 43.764 58.844 43.881 59.359 42.23 62.351 42.94 63.202 47.188 65.217 42.911 62.623 37.129 59.431 31.441 59.017 26.368 61.921 27.409 61.775 31.404 64.203 32.91 63.56 21.96 54.009 11.726 50.031.387 54.748-.331 51.298 6.866 55.81 6.35 57.686 13.345 62.09 22.38 66.615 28.837 66.964 29.339 67.471 29.494 68.368 29.452 68.594 30.683 67.94 31.002 67.742 31.793 71.562 30.747 67.37 26.7 68.432 25.343 72.701 25.438 70.445 30.785 74.165 34.242 75.995 32.539 78.787 33.13 80.025 34.922 81.46 34.018 82.655 32.861 83.607 31.454 85.064 31.717 83.604 33.729 82.399 33.196 82.576 34.57 82.965 35.734 84.118 36.159 84.012 37.245 82.121 36.49 81.752 37.298 81.988 38.223 83.588 37.829 82.888 39.666 83.683 39.291 83.999 38.427 84.099 37.335 85.579 38.6 86.65 40.257 87.549 42.089 87.227 43.548 86.398 44.482 85.732 45.582 90.379 51.341 89.995 58.638 95.454 62.179 95.84 64.759 94.293 61.686 94.258 63.335 98.126 66.488 97.127 72.915 102.862 76.39 102.303 81.551 108.966 84.217 109.698 90.006 112.34 91.559 113.468 95.954 116.015 98.914 116.728 99.744 118.485 100.622 118.916 101.308 119.465 102.18 118.902 104.714 119.439 105.429 122.139 109.015 125.136 107.736 130.52 110.301 126.964 110.748 125.887 110.641 121.684 111.923 122.105 112.477 122.739 112.83 123.426 113.124 122.426 114.285 120.719 114.127 119.934 111.31 120.453 119.094 127.807 125.26 128.968 134.354 122.701 128.667 120.144 119.393 114.026 113.565 115.37 120.742 119.715 125.007 121.966 131.307 119.674 132.963 119.802 128.279 117.912 127.721 115.75 128.611 119.262 128.62 118.464 130.078 117.92 129.712 116.317 128.677 116.693 130.637 114.578 127.734 113.342 125.515 110.326 124.667 110.837 122.881 111.999 123.282 110.966 121.152 106.868 127.089 116.575 133.528 118.314 139.474 115.39 140.748 113.863 135.703 112.533 133.51 107.204 127.109 103.73 118.913 98.779 112.148 78.913 110.915 50.648 108.579 30.112 109.308 27.784 111.879 25.573 114.574 22.944 116.829 22.845 114.338 24.704 113.871 25.367 112.169 18.717 112.51 17.095 123.095 11.054 126.039 10.886 124.675 11.185 123.785 11.688 123.112 9.802 123.354 9.58 125.314 7.54 125.397 7.223 123.081 8.456 122.362 9.366 121.313 9.338 119.497 7.048 123.093 7.018 121.277 6.799 123.603 5.173 124.283 2.256 125.314 5.446 121.846 8.575 118.312 11.237 114.295 8.585 114.551 5.38 119.379 1.743 120.607 1.32 120.053.691 119.699 0 119.406 3.806 114.775 8.194 107.575 9.662 102.526 14.538 101.139 14.614 95.75 17.416 95.01 17.161 94.486 16.916 93.955 16.259 93.82M53.775 60.936C56.198 57.265 62.25 54.172 62.172 49.91 59.096 52.906 55.12 58.142 53.775 60.936M73.097 64.762C72.934 62.225 71.59 60.824 70.242 59.433 70.666 61.722 72.035 63.096 73.097 64.762M55.672 89.742C56.972 87.787 58.354 90.556 59.771 90.395 60.065 89.704 60.422 89.071 60.975 88.65 61.104 90.557 64.81 90.109 65.084 88.714 65.82 88.968 66.271 89.491 66.23 90.497 73.973 88.859 77.085 91.012 86.181 91.397 81.079 81.502 75.91 71.673 69.004 63.523 62.139 71.813 52.184 79.901 48.047 89.035 51.418 89.464 56.008 86.989 55.672 89.742M31.177 78.785C33.322 77.819 34.618 75.97 35.949 74.162 33.239 74.548 32.836 77.316 31.177 78.785M32.28 83.501C35.921 81.687 39.477 76.617 40.647 74.237 37.481 76.936 35.326 80.679 32.28 83.501M110.807 94.131C109.512 93.051 108.713 88.478 106.761 89.959 109.014 90.475 107.831 94.32 110.807 94.131M47.426 91.374C46.448 91.36 45.465 91.345 44.49 91.328 44.258 94.077 47.179 92.943 47.426 91.374M53.883 91.476C54.341 93.143 53.031 92.984 53.247 94.402 61.354 94.944 70.251 95.073 73.797 94.724 66.992 90.51 56.051 96.421 53.883 91.476M79.055 96.572C81.968 96.861 84.666 96.243 86.687 96.69 85.979 96.555 86.336 96.033 86.708 95.517 83.921 95.681 80.667 93.873 79.055 96.572M113.099 97.693C112.213 97.342 111.686 93.74 110.193 95.888 111.496 95.833 111.723 99.724 113.099 97.693M40.249 99.485C38.39 98.96 41.304 98.725 42.019 98.922 40.173 100.88 45.166 99.719 46.102 100.75 46.109 100.359 46.114 99.968 46.12 99.575 46.093 99.217 46.041 98.88 45.54 98.982 43.539 100.597 42.559 97.574 38.504 98.279 37.97 99.485 40.409 100.536 40.249 99.485M78.954 103.028C76.732 103.446 76.158 102.27 74.266 102.367 74.407 104.019 78.865 104.8 78.954 103.028M115.886 107.134C118.335 106.497 118.157 108.406 119.981 108.372 119.805 107 119.417 105.833 118.264 105.41 117.604 107.401 118.106 103.771 116.514 104.796 116.625 105.905 115.83 106.079 115.886 107.134M8.332 112.488C11.17 112.038 12.519 110.051 13.686 107.874 11.022 108.502 9.547 110.36 8.332 112.488M108.629 120.527C106.938 117.888 104.664 115.722 106.391 113.445 102.362 114.025 106.941 121.895 108.629 120.527M112.729 121.179C112.462 118.745 112.002 116.488 109.877 115.85 110.813 117.643 111.005 120.153 112.729 121.179M116.74 127.704C117.231 125.682 116.231 125.112 115.023 124.739 114.713 126.579 115.718 127.149 116.74 127.704"/>
    <path d="M119.621,131.271 C122.311,133.495 117.306,137.498 119.621,131.271 M121.921,134.244 C122.913,131.728 125.15,135.464 124.8,137.813 C122.675,137.754 124.728,133.644 121.921,134.244"/>
    <path d="M123.637,137.208 C123.626,137.795 123.619,138.381 123.609,138.969 C122.015,139.993 122.514,136.368 121.857,138.356 C121.193,138.23 121.54,137.758 121.865,137.767 C121.779,137.078 120.804,137.254 120.113,137.153 C119.963,136.202 120.683,136.15 120.725,135.399 C121.12,135.405 121.51,135.413 121.901,135.416 C121.774,136.699 122.353,137.294 123.637,137.208 M414.872,22.055 L414.872,24.202 C413.013,24.626 413.013,21.631 414.872,22.055 M410.525,30.111 C411.318,30.023 411.318,33.423 410.525,33.335 C408.463,33.486 410.493,30.982 410.525,30.111 M394.599,92.96 C392.819,92.012 390.206,92.492 388.319,92.96 C389.157,91.217 393.728,90.119 394.599,92.96 M398.458,91.348 C399.456,92.564 401.554,89.93 401.838,92.423 C401.195,90.809 398.518,94.091 398.458,91.348 M441.902,92.96 C440.748,92.633 439.699,92.186 438.039,92.423 C438.752,90.96 442.004,90.907 441.902,92.96 M460.246,111.223 C460.674,111.641 461.334,111.801 462.177,111.76 C463.003,114.9 458.463,114.089 457.35,113.37 C457.646,110.945 460.438,114.415 460.246,111.223 M449.141,111.76 C451.981,113.548 453.467,111.668 456.866,112.835 C455.609,115.984 452.356,111.604 451.073,114.983 C449.627,114.63 451.533,113.834 451.073,112.835 C450.152,113.065 449.86,113.993 448.66,113.908 C448.454,112.786 448.992,112.487 449.141,111.76 M374.322,114.445 C376.117,114.813 375.588,114.707 377.704,114.983 C377.34,117.555 375.938,115.635 373.842,116.056 C374.098,115.626 374.345,115.185 374.322,114.445 M378.187,114.983 C379.945,114.633 380.759,115.345 381.563,116.056 C381.169,116.977 378.075,116.403 378.187,114.983 M385.909,115.52 C387.645,116.674 388.901,115.139 390.252,116.056 C389.778,117.296 386.521,117.636 385.909,115.52 M401.838,118.207 C400.352,117.833 395.335,116.977 396.528,117.131 C392.433,116.602 400.735,115.791 401.838,118.207 M351.638,117.668 C351.72,119.193 350.004,118.716 350.675,120.892 C349.399,121.054 349.087,120.146 349.226,118.742 C350.142,118.512 350.438,117.586 351.638,117.668 M349.225,124.653 C349.304,126.314 347.524,127.068 346.813,126.264 C347.145,125.203 348.097,124.831 349.225,124.653 M453.486,138.619 C452.257,138.552 451.615,137.836 451.557,136.468 C454.588,134.527 452.743,135.85 453.486,138.619"/>
    <path d="M407.146,37.095 C405.7,38.462 407.367,39.959 405.7,40.855 C405.778,41.484 406.578,41.308 407.146,41.392 C413.438,59.815 424.264,73.198 431.283,90.813 C434.166,91.299 434.899,91.108 437.56,91.348 C436.457,93.448 433.729,91.598 432.251,91.884 C433.756,96.115 434.965,100.681 439.487,101.554 C440.267,102.357 438.723,104.636 440.938,104.777 C442.36,104.311 439.816,103.972 440.455,102.629 C442.132,103.324 444.217,104.393 446.244,103.165 C445.84,105.397 441.799,103.588 441.901,106.388 C444.63,108.689 448.874,104.771 449.624,109.074 C449.152,109.06 449.249,108.416 449.141,108 C446.383,110.649 443.792,107.127 441.419,108.537 C441.611,109.934 442.861,110.157 442.869,111.76 C444.759,110.556 447.063,112.299 447.694,111.223 C449.305,112.762 445.574,114.939 444.317,113.37 C444.545,115.752 443.649,116.043 444.317,117.668 C443.204,117.832 443.778,116.116 442.869,116.057 C441.422,116.41 443.329,117.206 442.869,118.207 C441.721,118.653 440.62,115.549 440.455,118.207 C439.469,118.049 439.508,116.753 438.521,116.595 C437.095,118.043 443.208,121.649 438.521,121.967 C438.171,120.501 439.481,120.885 439.487,119.817 C436.383,119.694 436.943,115.488 433.213,116.057 C435.251,120.455 439.285,125.363 439.973,129.486 C438.533,127.688 436.257,126.817 436.593,123.039 C436.102,123.388 436.093,124.276 435.143,124.114 C435.834,122.52 433.509,120.774 433.697,123.039 C433.456,121.665 431.681,119.236 430.8,120.353 C428.973,119.439 431.849,119.471 431.766,118.742 C430.094,117.38 429.901,114.37 426.457,114.983 C429.33,123.779 436.711,130.429 438.521,138.618 C434.163,132.731 429.613,127.046 426.457,119.817 L424.523,119.817 C425.419,117.868 423.838,116.586 423.075,114.983 C404.977,114.432 390.801,114.207 369.981,113.908 C368.275,114.066 371.681,115.363 369.981,115.52 C367.408,116.09 369.86,114.389 368.533,113.908 C367.44,114.21 369.117,114.747 368.048,115.52 C367.483,115.434 367.641,114.541 367.568,113.908 C366.573,114.233 364.213,113.043 364.669,114.983 C359.938,111.914 355.455,118.101 353.088,124.653 C351.194,125.139 350.076,125.307 348.742,124.114 C350.25,123.904 350.168,120.892 351.154,123.039 C352.512,122.497 351.022,120.758 351.154,119.817 C352.91,120.649 353.381,116.009 355.017,114.983 C354.698,113.375 353.985,115.496 353.088,114.983 C352.192,115.064 352.789,116.803 352.121,117.132 C350.704,116.675 352.746,115.781 352.121,114.445 C349.797,114.413 346.953,117.379 345.36,120.892 C341.628,119.351 341.785,126.498 338.124,126.8 C340.697,121.432 344.271,117.172 347.295,112.298 C345.895,110.501 343.695,112.092 342.465,113.37 C340.4,111.027 338.038,112.441 335.71,111.76 C336.131,110.974 336.091,109.679 337.641,110.149 C337.255,109.143 336.835,108.182 336.674,106.925 C338.8,107.163 341.414,108.094 343.916,105.85 C343.475,104.383 342.226,106.804 341.499,105.313 C340.313,104.679 342.488,103.285 341.019,102.629 C341.454,100.82 342.098,102.565 342.95,101.554 C341.461,99.038 346.947,96.122 344.396,94.034 C346.727,93.228 347.266,91.805 348.742,92.423 C361.665,74.593 376.724,57.8 387.355,41.392 C385.913,40.134 385.291,37.964 383.976,36.558 C384.313,34.872 385.266,35.857 386.394,36.02 C386.338,33.903 384.295,34.379 385.426,32.26 C386.43,32.397 385.558,34.62 386.394,34.945 C387.662,35.105 386.774,32.861 388.319,33.335 C387.694,34.05 388.026,34.955 388.807,35.483 C388.477,36.207 387.333,35.015 386.876,36.558 C387.55,37.595 389.168,37.586 389.289,39.243 C391.417,37.723 388.751,36.169 388.807,33.872 C390.595,33.849 390.535,35.885 391.703,36.558 C392.199,35.312 392.808,32.572 394.598,34.409 C395.528,32.248 394.145,30.078 394.598,26.888 C396.939,26.789 395.502,30.895 398.458,30.111 C398.041,32.177 397.389,34.457 400.391,33.872 C400.135,35.9 399.71,36.392 400.874,37.63 C402.521,35.794 405.293,36.392 406.668,35.483 C407.755,35.784 406.079,36.321 407.146,37.095 M395.078,37.63 C396.314,37.692 396.769,38.618 397.492,39.243 C396.637,40.261 396.216,41.76 395.562,43.003 C396.692,42.827 397.557,42.358 398.458,41.93 C399.342,38.944 397.356,36.988 396.045,34.945 C395.837,35.967 395.006,36.297 395.078,37.63 M406.668,47.301 C405.808,46.261 405.313,42.033 403.77,43.54 C405.172,43.973 405.684,48.181 406.668,47.301 M378.671,68.786 C380.725,62.99 387.001,59.118 387.84,53.746 C389.391,53.145 390.328,51.859 390.735,49.986 C389.371,50.431 389.482,49.229 388.319,49.449 C388.809,50.877 388.825,52.184 387.84,53.211 C386.637,52.133 384.842,55.089 383.013,56.971 C383.846,56.941 384.25,57.383 384.46,58.043 C383.221,59.223 382.763,62.102 380.6,60.728 C380.948,62.194 379.64,61.81 379.634,62.88 C380.288,64.181 380.598,63.214 381.085,63.952 C379.975,64.892 378.025,67.685 378.671,68.786 M379.634,63.952 C377.982,63.756 376.544,66.56 377.704,67.713 C377.843,65.896 379.207,65.446 379.634,63.952 M402.804,54.285 L404.254,54.285 C403.714,53.269 403.573,51.816 402.32,51.6 C402.084,53.285 403.983,53.016 402.804,54.285 M406.668,60.193 C406.699,57.829 405.509,56.823 404.254,55.896 C404.622,57.813 405.496,59.165 406.668,60.193 M399.908,74.696 C399.908,74.995 400.299,75.305 400.391,74.696 C399.418,74.099 397.576,73.055 398.94,71.472 C395.828,70.443 396.391,67.33 395.562,66.1 C394.875,66.58 393.191,65.176 391.703,63.952 C391.938,66.008 390.025,65.668 390.735,68.251 C392.873,69.016 391.997,66.432 393.631,66.637 C393.082,68.715 391.271,69.384 389.771,70.399 C389.525,68.71 390.91,68.204 389.289,67.713 C388.73,69.047 387.967,69.628 389.289,70.399 C388.675,71.147 386.922,70.631 386.876,72.01 C387.517,72.55 388.671,72.518 388.807,73.622 C388.169,73.63 388.361,74.562 387.84,74.696 C387.921,73.353 387.097,73.014 386.394,72.547 C387.057,74.724 385.345,74.247 385.426,75.771 C386.633,76.479 386.938,73.647 387.355,75.233 C386.133,76.737 385.609,79.02 383.976,80.067 C383.572,77.65 385.936,78.307 385.909,76.308 C385.246,76.331 384.851,76.054 384.46,75.771 C384.098,78.767 381.669,79.467 381.085,82.215 C382.645,82.88 381.453,80.478 383.013,81.142 C383.013,81.68 383.403,81.782 383.496,82.215 C381.627,82.229 381.123,86.611 379.634,83.826 C379.095,85.52 379.591,85.043 379.634,87.051 C381.824,87.206 382.526,87.837 383.976,86.512 C390.328,88.6 401.358,88.817 407.63,88.127 C405.151,83.898 401.17,78.487 399.908,74.696 M399.908,69.324 C399.397,67.474 398.915,65.196 397.012,64.49 C397.609,66.172 398.764,70.035 399.908,69.324 M410.525,85.976 C408.478,77.335 404.051,71.341 399.908,65.027 C402.294,73.293 406.163,79.911 410.525,85.976 M413.904,69.861 C414.112,67.839 412.883,67.416 411.977,66.637 C412.271,68.097 412.932,69.155 413.904,69.861 M372.395,74.696 C373.486,72.869 374.859,71.356 375.774,69.324 C373.947,68.546 374.847,70.8 373.357,70.399 C374.354,72.975 370.502,72.898 372.395,74.696 M375.291,73.085 C375.59,71.628 377.307,71.748 377.221,69.861 C376.008,69.979 374.597,72.623 375.291,73.085 M363.707,85.44 C366.654,83.859 371.79,76.975 370.943,74.696 C368.765,78.535 365.916,81.634 363.707,85.44 M420.665,83.29 C419.943,80.332 418.939,77.689 416.801,76.308 C418.018,78.715 418.643,81.778 420.665,83.29 M360.326,92.423 C359.926,89.987 364.524,89.297 361.776,87.589 C362.125,89.794 358.535,90.395 360.326,92.423 M381.085,94.57 C380.935,94.589 379.828,94.24 380.117,94.034 C382.04,92.655 384.306,95.26 386.876,95.645 C386.949,95.013 386.791,94.12 387.355,94.034 C387.965,94.255 388.346,94.726 388.319,95.645 C390.081,93.304 390.318,95.52 391.703,95.107 C395.706,94.616 401.847,95.448 408.113,95.107 C409.152,97.055 404.837,95.655 406.668,96.72 C408.59,96.424 408.12,96.424 410.043,96.72 C410.642,94.982 408.482,96.309 409.081,94.57 C409.375,94.728 410.937,95.908 411.01,94.57 C411.227,93.206 408.779,92.216 408.113,90.273 C395.156,90.158 386.569,88.335 377.221,89.198 C377.839,91.321 375.813,90.498 375.774,91.884 C378.493,91.778 379.62,91.404 381.085,92.96 C378.381,92.482 379.283,93.507 378.671,94.57 C376.862,94.209 379.025,92.785 377.221,92.423 C377.115,95.454 374.342,93.436 373.842,95.107 C377.205,95.054 378.888,94.869 381.085,94.57 M416.318,96.72 C417.163,96.572 418.726,98.232 419.215,96.72 C416.464,96.023 417.413,91.207 414.39,90.813 C413.898,94.418 418.32,94.523 416.318,96.72 M386.876,106.925 C387.876,106.605 390.045,107.589 390.252,106.388 C389.339,106.359 387.474,105.188 386.876,106.925 M392.665,106.925 C394.033,107.377 395.647,107.549 397.012,108 C396.941,107.001 396.692,106.204 396.045,105.85 C395.661,108.515 393.228,104.067 392.665,106.925 M403.287,108.537 C402.921,105.353 405.976,108.436 406.183,106.925 C404.7,105.762 401.213,107.209 400.391,106.925 C401.013,107.845 401.975,108.384 403.287,108.537 M415.835,109.612 C416.085,108.817 416.553,108.259 416.801,107.463 C415.398,107.611 408.472,105.471 406.668,108 C407.759,108.78 408.649,106.462 408.596,109.074 L410.525,109.074 C410.194,107.63 411.525,108.035 411.977,107.463 C414.273,110.524 414.511,106.784 415.835,109.612 M431.283,110.149 C431.615,108.347 430.476,108.185 429.353,108 C429.127,109.683 430.566,109.515 431.283,110.149 M378.187,111.223 C376.815,111.783 376.176,111.783 374.808,111.223 C374.413,113.171 378.45,112.521 378.187,111.223 M451.073,106.388 C450.869,105.265 451.401,104.965 451.558,104.24 C452.707,104.572 452.35,106.58 454.453,105.85 C453.526,108.371 452.604,104.978 451.073,106.388 M394.599,117.668 C393.776,117.866 393.688,117.249 393.631,116.595 C392.495,117.383 392.734,117.729 391.219,117.132 C392.077,116.127 394.325,115.199 394.599,117.668 M448.66,131.096 C449.657,132.135 450.543,133.295 451.073,134.858 C449.556,134.4 449.072,132.788 448.66,131.096 M441.902,132.171 C443.417,132.813 442.067,134.01 443.351,135.395 C443.226,136.064 440.53,133.283 441.902,132.171"/>
  </g>
</svg>
